<svg version="1.1" id="Layer_1" xmlns="http://www.w3.org/2000/svg" xmlns:xlink="http://www.w3.org/1999/xlink" x="0px" y="0px"
	 width="100%" viewBox="0 0 507 253" enable-background="new 0 0 507 253" xml:space="preserve">
<path fill="#000000" opacity="1.000000" stroke="none" 
	d="
M304.000000,254.000000 
	C202.666672,254.000000 101.833336,254.000000 1.000000,254.000000 
	C1.000000,169.666672 1.000000,85.333336 1.000000,1.000000 
	C170.000000,1.000000 339.000000,1.000000 508.000000,1.000000 
	C508.000000,85.333336 508.000000,169.666672 508.000000,254.000000 
	C440.166656,254.000000 372.333344,254.000000 304.000000,254.000000 
M276.016113,61.134289 
	C264.914398,61.134289 253.812668,61.134289 242.536819,61.134289 
	C242.536819,85.187042 242.536819,108.903450 242.536819,132.899429 
	C253.731964,132.899429 264.743744,133.625870 275.614624,132.699478 
	C286.971802,131.731659 295.933929,125.819351 301.428192,115.429413 
	C313.380646,92.826691 302.037506,67.792412 276.016113,61.134289 
M323.747681,129.832092 
	C331.020721,134.166122 338.731750,134.902298 346.700684,132.303116 
	C358.409515,128.484100 364.434784,116.485756 362.182465,101.836273 
	C359.689911,85.624542 347.098267,78.229988 331.076141,81.654282 
	C321.286377,83.746582 315.686981,90.531342 313.917755,100.220345 
	C311.861267,111.482742 313.375427,121.796013 323.747681,129.832092 
M230.274475,107.473083 
	C229.257050,89.282043 220.937454,80.824326 204.215759,80.981728 
	C191.905792,81.097603 182.746033,89.510132 181.149948,102.165863 
	C179.235886,117.342896 185.687561,129.329803 197.587051,132.691605 
	C198.063919,132.826340 198.563248,132.880585 199.050858,132.978561 
	C217.014694,136.587891 228.977524,127.112785 230.274475,107.473083 
M163.563477,71.537842 
	C163.135712,68.460922 165.334671,69.028694 167.082535,69.025452 
	C173.652832,69.013275 180.223190,69.020576 186.613892,69.020576 
	C186.613892,65.927269 186.613892,63.649746 186.613892,61.273346 
	C167.509933,61.273346 148.642822,61.273346 129.746536,61.273346 
	C129.746536,63.979546 129.746536,66.386688 129.746536,69.168823 
	C137.640427,69.168823 145.230148,69.168823 153.203033,69.168823 
	C153.203033,90.600121 153.203033,111.654228 153.203033,132.702484 
	C156.823074,132.702484 160.042679,132.702484 163.561234,132.702484 
	C163.561234,112.436119 163.561234,92.486099 163.563477,71.537842 
M261.792816,180.681549 
	C263.997681,181.807892 266.101227,183.471436 268.435486,183.911713 
	C270.839874,184.365219 273.469025,183.626801 276.642883,183.354797 
	C276.642883,175.858047 276.731934,167.925507 276.509796,160.001724 
	C276.486725,159.179031 274.615417,158.408157 272.586670,156.817322 
	C272.586670,161.108154 272.586670,163.539337 272.586670,165.952469 
	C264.182831,165.792389 261.177734,167.832428 260.763885,174.088455 
	C260.635406,176.030548 261.207672,178.019012 261.792816,180.681549 
M391.019531,179.454926 
	C392.943604,181.378296 393.679077,185.419540 398.197571,183.393372 
	C395.798126,180.138535 393.555481,177.096436 391.184082,173.879654 
	C393.458557,171.298584 395.552612,168.922241 397.646698,166.545898 
	C397.196930,166.053009 396.747162,165.560135 396.297424,165.067261 
	C393.280914,167.557800 390.264374,170.048340 386.858948,172.859985 
	C386.858948,167.677872 386.858948,163.054749 386.858948,158.431610 
	C386.448914,158.130371 386.038879,157.829117 385.628845,157.527878 
	C384.789062,158.628555 383.260132,159.706238 383.222504,160.833710 
	C382.995422,167.636948 382.994812,174.455505 383.226715,181.258408 
	C383.263947,182.349976 384.850494,183.388733 385.720825,184.451889 
	C386.234985,184.128174 386.749176,183.804459 387.263367,183.480743 
	C387.263367,180.999649 387.263367,178.518539 387.263367,175.049881 
	C388.865021,176.905609 389.707886,177.882202 391.019531,179.454926 
M100.257294,173.084030 
	C101.739738,172.951965 103.222176,172.819885 104.704620,172.687820 
	C104.737068,172.024414 104.769524,171.360992 104.801971,170.697586 
	C101.482719,170.400757 98.163475,170.103943 94.963165,169.817749 
	C94.963165,167.046356 94.963165,164.624649 94.963165,162.248520 
	C105.323677,161.119278 105.323677,161.119278 106.007683,159.173248 
	C100.876244,159.173248 95.815781,159.173248 90.534851,159.173248 
	C90.534851,167.517380 90.534851,175.604401 90.534851,183.988129 
	C91.874535,183.912628 93.933243,183.988937 93.966202,183.765900 
	C94.465111,180.389694 94.698265,176.974197 95.018906,173.276886 
	C96.421425,173.214355 97.882370,173.149216 100.257294,173.084030 
M218.564957,168.910950 
	C217.820572,168.267532 217.070648,167.068405 216.332748,167.075760 
	C212.915726,167.109802 208.828949,166.388870 206.245331,167.984192 
	C202.398071,170.359756 202.374634,174.991425 204.002625,179.205307 
	C205.457748,182.971786 208.404968,184.249908 212.294098,184.072998 
	C219.230942,183.757507 222.054153,177.692322 218.564957,168.910950 
M232.714066,180.157928 
	C227.607132,181.849045 226.757370,181.320053 226.663467,176.230743 
	C226.602432,172.923218 226.651978,169.613632 226.651978,166.144348 
	C225.142136,166.144348 224.024277,166.144348 222.843750,166.144348 
	C222.843750,170.481369 222.645508,174.640076 222.904922,178.770020 
	C223.122269,182.230118 225.143082,184.249863 228.834030,184.054474 
	C231.727448,183.901291 234.616486,183.665741 237.787567,183.447525 
	C237.787567,178.506195 237.921677,173.518784 237.679352,168.549744 
	C237.628189,167.500854 236.198059,166.519226 235.403320,165.506622 
	C235.061569,165.783005 234.719833,166.059402 234.378098,166.335800 
	C234.047211,170.752625 233.716324,175.169449 232.714066,180.157928 
M114.632545,165.949142 
	C108.771507,166.926956 106.099846,170.443985 106.775978,176.291687 
	C107.386276,181.570129 110.430000,184.204666 115.740669,184.051224 
	C120.654053,183.909256 123.722931,180.633728 123.885147,175.358276 
	C124.057770,169.744720 121.255379,166.614334 114.632545,165.949142 
M353.427643,183.855530 
	C357.128693,183.855530 360.829773,183.855530 364.876465,183.855530 
	C364.876465,179.914963 365.399597,176.197540 364.696259,172.728836 
	C364.211151,170.336334 362.490936,167.175507 360.496613,166.347244 
	C357.525543,165.113342 353.758942,165.452530 350.801483,170.361465 
	C353.750641,169.684250 355.559387,168.795731 357.211426,169.026978 
	C358.762390,169.244080 360.147766,170.644608 361.605988,171.524399 
	C361.399323,171.988602 361.192657,172.452805 360.985992,172.916992 
	C359.080994,173.316147 357.136902,173.584488 355.278534,174.139694 
	C350.271576,175.635529 349.349579,179.117874 353.427643,183.855530 
M314.564117,170.089966 
	C316.280090,176.444138 322.903625,182.109421 316.766937,189.448486 
	C320.897003,189.799881 327.108002,178.315857 329.950653,165.826508 
	C323.159515,166.584808 325.755981,174.205795 321.717773,176.612915 
	C315.581573,166.202713 315.581573,166.202713 313.190979,166.583237 
	C313.539001,167.524673 313.884094,168.458160 314.564117,170.089966 
M150.920181,166.059769 
	C149.485703,166.909866 148.051224,167.759949 146.347183,168.769791 
	C149.468292,171.841980 155.518066,164.864334 156.230164,172.863724 
	C154.019501,173.362701 151.886932,173.633469 149.910049,174.339920 
	C146.985519,175.384995 145.028442,177.329315 145.961304,180.776993 
	C146.867371,184.125580 149.583191,184.244476 152.354141,184.008423 
	C154.771622,183.802490 157.180054,183.490250 159.957703,183.184830 
	C159.957703,180.447113 159.984009,177.310898 159.952255,174.175278 
	C159.885193,167.553619 158.346313,166.029648 150.920181,166.059769 
M191.551834,184.968399 
	C190.906891,186.479050 190.261948,187.989685 189.588470,189.567169 
	C193.465149,189.742264 199.288879,178.944687 202.489075,165.787949 
	C195.667648,166.712891 198.132965,174.266434 194.185303,176.867828 
	C188.514557,166.165512 188.514557,166.165512 185.615479,166.543930 
	C186.329895,168.272003 187.114151,169.930801 187.708923,171.654968 
	C189.148972,175.829483 190.500748,180.034454 191.551834,184.968399 
M284.778564,174.038956 
	C281.486328,175.120102 278.898529,176.834320 279.999176,180.845963 
	C280.996307,184.480408 284.059326,184.210205 286.930176,183.950485 
	C289.057648,183.758011 291.173279,183.434250 293.851929,183.099213 
	C293.851929,179.625854 294.329498,175.282257 293.638824,171.133148 
	C293.321136,169.224655 290.986908,166.773117 289.081909,166.210342 
	C286.110901,165.332703 282.594727,165.547836 280.767090,169.439270 
	C289.602753,170.213623 289.602753,170.213623 289.854736,172.994598 
	C288.450378,173.308929 287.011749,173.630905 284.778564,174.038956 
M368.166992,180.218628 
	C368.127747,181.023087 368.088501,181.827545 368.049255,182.632004 
	C371.320312,182.695053 374.984497,183.718445 377.763977,182.580643 
	C381.321960,181.124115 380.629730,176.192566 377.036194,174.346268 
	C376.013824,173.820969 374.772797,173.675934 373.828125,173.057175 
	C372.847137,172.414673 372.103668,171.409485 371.256348,170.562897 
	C372.485168,170.011444 373.671875,169.173950 374.954071,168.985306 
	C376.364868,168.777725 377.863403,169.166809 379.323730,169.295944 
	C376.867462,165.440247 373.598511,165.143677 370.539520,166.675705 
	C369.096222,167.398560 367.237823,170.558899 367.641724,171.118912 
	C369.121094,173.170242 371.513580,174.545685 373.477051,176.272507 
	C374.477051,177.152008 375.295654,178.237793 376.196259,179.230331 
	C374.859924,179.846695 373.570465,180.757767 372.171448,180.980499 
	C371.162750,181.141083 370.008209,180.385300 368.166992,180.218628 
M403.453217,170.392548 
	C406.153564,169.811569 408.853912,169.230591 412.009674,168.551636 
	C409.344421,165.304611 406.033630,165.311295 403.013550,166.523590 
	C401.547394,167.112122 399.523376,170.179825 399.904114,170.796677 
	C401.201874,172.899170 403.481476,174.384827 405.335876,176.158676 
	C406.393585,177.170441 407.353333,178.284622 408.357178,179.352692 
	C406.816650,179.895416 405.310944,180.672363 403.724792,180.908432 
	C402.400848,181.105499 400.982574,180.668884 399.606079,180.512909 
	C399.510712,181.202332 399.415344,181.891739 399.319946,182.581161 
	C401.594910,183.070770 404.051086,184.325500 406.095398,183.841278 
	C408.270416,183.326126 410.896332,181.563293 411.815155,179.628174 
	C413.222656,176.663803 410.781311,174.940643 408.016632,173.866821 
	C406.397888,173.238052 404.960266,172.142899 403.453217,170.392548 
M340.016693,172.768127 
	C340.017181,174.765732 339.712311,176.826324 340.107605,178.742493 
	C340.472260,180.510223 341.227386,183.126816 342.457825,183.569244 
	C344.315308,184.237106 346.735352,183.340286 348.916321,183.108459 
	C348.884674,182.518539 348.852997,181.928635 348.821350,181.338715 
	C347.233093,181.076447 345.644836,180.814178 344.031586,180.547775 
	C344.031586,176.667572 344.031586,172.885132 344.031586,169.524460 
	C345.936005,168.743362 347.487091,168.107193 349.038147,167.471024 
	C348.934448,167.103851 348.830750,166.736679 348.727051,166.369507 
	C347.164368,166.122986 345.601685,165.876465 344.069855,165.634811 
	C343.809052,163.668518 343.567505,161.847534 343.126556,158.522919 
	C340.693909,162.424118 339.097717,164.983887 337.746490,167.150833 
	C338.511261,168.740952 339.263916,170.305878 340.016693,172.768127 
M306.756073,171.492813 
	C306.756073,175.584061 306.756073,179.675308 306.756073,183.766556 
	C307.304779,184.013214 307.853485,184.259872 308.402191,184.506531 
	C309.158600,183.323685 310.530212,182.160721 310.569153,180.954727 
	C310.783295,174.322906 310.594604,167.679276 310.705444,161.042389 
	C310.757111,157.947418 309.584045,157.265747 306.756104,158.496674 
	C306.756104,162.551147 306.756104,166.529236 306.756073,171.492813 
M176.672012,164.658386 
	C176.670349,158.097000 176.670349,158.097000 172.953659,158.451248 
	C172.953659,166.869293 172.953659,175.287323 172.953659,183.705368 
	C173.394180,183.971420 173.834702,184.237457 174.275223,184.503510 
	C175.073929,183.356506 176.503418,182.240814 176.562149,181.057098 
	C176.816956,175.922668 176.671753,170.768372 176.672012,164.658386 
M134.883240,169.112244 
	C135.938034,168.586868 136.992828,168.061478 138.047623,167.536087 
	C137.872177,167.311600 137.696716,167.087097 137.521271,166.862610 
	C133.992569,166.862610 130.463867,166.862610 126.847809,166.862610 
	C126.847809,172.169540 126.847809,177.916656 126.847809,183.618179 
	C130.532104,185.013031 130.166092,182.689301 130.388992,180.406570 
	C130.777710,176.425949 128.357391,171.435318 134.883240,169.112244 
M167.983276,173.473526 
	C167.983276,168.352249 167.983276,163.230972 167.983276,158.109695 
	C167.435791,157.878311 166.888321,157.646927 166.340836,157.415543 
	C165.629318,158.541092 164.334549,159.650101 164.302063,160.794891 
	C164.108536,167.615906 164.100586,174.448593 164.319794,181.268066 
	C164.353073,182.303406 165.895569,183.290222 166.739990,184.299484 
	C167.154419,184.001389 167.568848,183.703278 167.983276,183.405182 
	C167.983276,180.422333 167.983276,177.439499 167.983276,173.473526 
M246.305649,171.526749 
	C247.818085,170.768692 249.400009,170.119446 250.818390,169.214050 
	C251.753098,168.617355 252.452408,167.651886 253.504013,166.606003 
	C249.057693,166.606003 245.740860,166.606003 242.285248,166.606003 
	C242.285248,172.101730 242.285248,177.984863 242.285248,183.867996 
	C242.744370,184.099319 243.203506,184.330658 243.662628,184.561981 
	C244.364685,183.444336 245.535538,182.382416 245.676300,181.198059 
	C246.025452,178.260406 245.904099,175.266830 246.305649,171.526749 
M298.205933,181.157333 
	C299.033264,182.238251 299.860596,183.319183 300.687927,184.400101 
	C301.041718,184.098083 301.395508,183.796082 301.749298,183.494064 
	C301.749298,177.720078 301.749298,171.946075 301.749298,166.172089 
	C301.306061,165.927307 300.862854,165.682526 300.419617,165.437744 
	C299.682007,166.531616 298.388550,167.586395 298.308350,168.726517 
	C298.040039,172.539688 298.205719,176.383362 298.205933,181.157333 
z"/>
<path fill="#F6F6F6" opacity="1.000000" stroke="none" 
	d="
M276.457520,61.196327 
	C302.037506,67.792412 313.380646,92.826691 301.428192,115.429413 
	C295.933929,125.819351 286.971802,131.731659 275.614624,132.699478 
	C264.743744,133.625870 253.731964,132.899429 242.536819,132.899429 
	C242.536819,108.903450 242.536819,85.187042 242.536819,61.134289 
	C253.812668,61.134289 264.914398,61.134289 276.457520,61.196327 
M259.546875,69.015579 
	C257.427979,69.015579 255.309097,69.015579 253.055344,69.015579 
	C253.055344,87.841026 253.055344,106.217285 253.055344,124.984421 
	C257.880066,124.984421 262.503174,124.985672 267.126282,124.984184 
	C285.041046,124.978409 294.915161,115.163719 295.074768,97.205154 
	C295.215118,81.411980 287.131378,71.258842 272.491028,69.272858 
	C268.565002,68.740273 264.520996,69.077599 259.546875,69.015579 
z"/>
<path fill="#F4F4F4" opacity="1.000000" stroke="none" 
	d="
M323.457520,129.610596 
	C313.375427,121.796013 311.861267,111.482742 313.917755,100.220345 
	C315.686981,90.531342 321.286377,83.746582 331.076141,81.654282 
	C347.098267,78.229988 359.689911,85.624542 362.182465,101.836273 
	C364.434784,116.485756 358.409515,128.484100 346.700684,132.303116 
	C338.731750,134.902298 331.020721,134.166122 323.457520,129.610596 
M340.021179,88.180489 
	C330.454132,87.819977 325.157867,91.804367 323.733063,101.189896 
	C323.119415,105.232140 323.160400,109.526085 323.779053,113.571884 
	C325.135773,122.444962 330.023499,126.255997 338.827026,126.091713 
	C346.160187,125.954865 351.052429,121.460152 352.061340,113.202057 
	C352.559601,109.123741 352.564301,104.859283 351.964050,100.801559 
	C351.020325,94.421600 347.726135,89.644478 340.021179,88.180489 
z"/>
<path fill="#F5F5F5" opacity="1.000000" stroke="none" 
	d="
M230.230240,107.895264 
	C228.977524,127.112785 217.014694,136.587891 199.050858,132.978561 
	C198.563248,132.880585 198.063919,132.826340 197.587051,132.691605 
	C185.687561,129.329803 179.235886,117.342896 181.149948,102.165863 
	C182.746033,89.510132 191.905792,81.097603 204.215759,80.981728 
	C220.937454,80.824326 229.257050,89.282043 230.230240,107.895264 
M197.634979,124.173576 
	C205.088043,128.484116 215.393723,125.933167 218.150955,118.700241 
	C221.133255,110.876900 221.422531,102.986351 217.844498,95.391449 
	C213.566681,86.311111 199.878632,85.510162 194.071655,93.687515 
	C189.322662,100.375023 189.207245,119.015915 197.634979,124.173576 
z"/>
<path fill="#F4F4F4" opacity="1.000000" stroke="none" 
	d="
M163.562347,72.036964 
	C163.561234,92.486099 163.561234,112.436119 163.561234,132.702484 
	C160.042679,132.702484 156.823074,132.702484 153.203033,132.702484 
	C153.203033,111.654228 153.203033,90.600121 153.203033,69.168823 
	C145.230148,69.168823 137.640427,69.168823 129.746536,69.168823 
	C129.746536,66.386688 129.746536,63.979546 129.746536,61.273346 
	C148.642822,61.273346 167.509933,61.273346 186.613892,61.273346 
	C186.613892,63.649746 186.613892,65.927269 186.613892,69.020576 
	C180.223190,69.020576 173.652832,69.013275 167.082535,69.025452 
	C165.334671,69.028694 163.135712,68.460922 163.562347,72.036964 
z"/>
<path fill="#DDDDDD" opacity="1.000000" stroke="none" 
	d="
M261.625977,180.333893 
	C261.207672,178.019012 260.635406,176.030548 260.763885,174.088455 
	C261.177734,167.832428 264.182831,165.792389 272.586670,165.952469 
	C272.586670,163.539337 272.586670,161.108154 272.586670,156.817322 
	C274.615417,158.408157 276.486725,159.179031 276.509796,160.001724 
	C276.731934,167.925507 276.642883,175.858047 276.642883,183.354797 
	C273.469025,183.626801 270.839874,184.365219 268.435486,183.911713 
	C266.101227,183.471436 263.997681,181.807892 261.625977,180.333893 
M264.727600,173.744431 
	C264.834930,175.375732 264.494019,177.239868 265.184082,178.568497 
	C265.792908,179.740692 267.650208,181.097321 268.779114,180.956161 
	C270.196014,180.778992 271.771729,179.382736 272.631653,178.084045 
	C273.242401,177.161652 272.821075,175.529526 272.791992,174.215683 
	C272.742706,171.988495 273.402863,169.351807 269.990662,168.893478 
	C266.937714,168.483398 265.377228,170.023682 264.727600,173.744431 
z"/>
<path fill="#E5E5E5" opacity="1.000000" stroke="none" 
	d="
M390.785156,179.156860 
	C389.707886,177.882202 388.865021,176.905609 387.263367,175.049881 
	C387.263367,178.518539 387.263367,180.999649 387.263367,183.480743 
	C386.749176,183.804459 386.234985,184.128174 385.720825,184.451889 
	C384.850494,183.388733 383.263947,182.349976 383.226715,181.258408 
	C382.994812,174.455505 382.995422,167.636948 383.222504,160.833710 
	C383.260132,159.706238 384.789062,158.628555 385.628845,157.527878 
	C386.038879,157.829117 386.448914,158.130371 386.858948,158.431610 
	C386.858948,163.054749 386.858948,167.677872 386.858948,172.859985 
	C390.264374,170.048340 393.280914,167.557800 396.297424,165.067261 
	C396.747162,165.560135 397.196930,166.053009 397.646698,166.545898 
	C395.552612,168.922241 393.458557,171.298584 391.184082,173.879654 
	C393.555481,177.096436 395.798126,180.138535 398.197571,183.393372 
	C393.679077,185.419540 392.943604,181.378296 390.785156,179.156860 
z"/>
<path fill="#D4D4D4" opacity="1.000000" stroke="none" 
	d="
M99.800308,173.084061 
	C97.882370,173.149216 96.421425,173.214355 95.018906,173.276886 
	C94.698265,176.974197 94.465111,180.389694 93.966202,183.765900 
	C93.933243,183.988937 91.874535,183.912628 90.534851,183.988129 
	C90.534851,175.604401 90.534851,167.517380 90.534851,159.173248 
	C95.815781,159.173248 100.876244,159.173248 106.007683,159.173248 
	C105.323677,161.119278 105.323677,161.119278 94.963165,162.248520 
	C94.963165,164.624649 94.963165,167.046356 94.963165,169.817749 
	C98.163475,170.103943 101.482719,170.400757 104.801971,170.697586 
	C104.769524,171.360992 104.737068,172.024414 104.704620,172.687820 
	C103.222176,172.819885 101.739738,172.951965 99.800308,173.084061 
z"/>
<path fill="#E4E4E4" opacity="1.000000" stroke="none" 
	d="
M218.766846,169.236496 
	C222.054153,177.692322 219.230942,183.757507 212.294098,184.072998 
	C208.404968,184.249908 205.457748,182.971786 204.002625,179.205307 
	C202.374634,174.991425 202.398071,170.359756 206.245331,167.984192 
	C208.828949,166.388870 212.915726,167.109802 216.332748,167.075760 
	C217.070648,167.068405 217.820572,168.267532 218.766846,169.236496 
M214.746521,180.240616 
	C215.158813,177.421127 216.225189,174.502625 215.817139,171.807312 
	C215.311615,168.467941 209.986115,167.381241 208.587402,170.291763 
	C207.440582,172.678101 207.286713,176.082672 208.061874,178.617096 
	C208.434052,179.833878 211.970291,180.082901 214.746521,180.240616 
z"/>
<path fill="#DDDDDD" opacity="1.000000" stroke="none" 
	d="
M233.049744,179.872101 
	C233.716324,175.169449 234.047211,170.752625 234.378098,166.335800 
	C234.719833,166.059402 235.061569,165.783005 235.403320,165.506622 
	C236.198059,166.519226 237.628189,167.500854 237.679352,168.549744 
	C237.921677,173.518784 237.787567,178.506195 237.787567,183.447525 
	C234.616486,183.665741 231.727448,183.901291 228.834030,184.054474 
	C225.143082,184.249863 223.122269,182.230118 222.904922,178.770020 
	C222.645508,174.640076 222.843750,170.481369 222.843750,166.144348 
	C224.024277,166.144348 225.142136,166.144348 226.651978,166.144348 
	C226.651978,169.613632 226.602432,172.923218 226.663467,176.230743 
	C226.757370,181.320053 227.607132,181.849045 233.049744,179.872101 
z"/>
<path fill="#E4E4E4" opacity="1.000000" stroke="none" 
	d="
M115.046738,165.948608 
	C121.255379,166.614334 124.057770,169.744720 123.885147,175.358276 
	C123.722931,180.633728 120.654053,183.909256 115.740669,184.051224 
	C110.430000,184.204666 107.386276,181.570129 106.775978,176.291687 
	C106.099846,170.443985 108.771507,166.926956 115.046738,165.948608 
M112.287743,180.208786 
	C114.379883,180.102295 117.968941,180.585999 118.286758,179.779922 
	C119.286774,177.243607 119.462845,174.168671 119.095482,171.417419 
	C118.958168,170.388992 116.398239,168.940506 115.028084,169.027344 
	C113.632439,169.115799 111.407585,170.697983 111.201088,171.908493 
	C110.783401,174.357010 111.485504,176.996521 112.287743,180.208786 
z"/>
<path fill="#E4E4E4" opacity="1.000000" stroke="none" 
	d="
M353.082397,183.630280 
	C349.349579,179.117874 350.271576,175.635529 355.278534,174.139694 
	C357.136902,173.584488 359.080994,173.316147 360.985992,172.916992 
	C361.192657,172.452805 361.399323,171.988602 361.605988,171.524399 
	C360.147766,170.644608 358.762390,169.244080 357.211426,169.026978 
	C355.559387,168.795731 353.750641,169.684250 350.801483,170.361465 
	C353.758942,165.452530 357.525543,165.113342 360.496613,166.347244 
	C362.490936,167.175507 364.211151,170.336334 364.696259,172.728836 
	C365.399597,176.197540 364.876465,179.914963 364.876465,183.855530 
	C360.829773,183.855530 357.128693,183.855530 353.082397,183.630280 
M354.229095,179.571793 
	C355.924683,179.943314 357.786743,180.902985 359.259125,180.486145 
	C360.295319,180.192764 360.801636,178.027679 361.544556,176.698334 
	C361.119995,176.290009 360.695404,175.881699 360.270844,175.473373 
	C358.261780,176.573975 356.252747,177.674576 354.229095,179.571793 
z"/>
<path fill="#E5E5E5" opacity="1.000000" stroke="none" 
	d="
M314.396667,169.740814 
	C313.884094,168.458160 313.539001,167.524673 313.190979,166.583237 
	C315.581573,166.202713 315.581573,166.202713 321.717773,176.612915 
	C325.755981,174.205795 323.159515,166.584808 329.950653,165.826508 
	C327.108002,178.315857 320.897003,189.799881 316.766937,189.448486 
	C322.903625,182.109421 316.280090,176.444138 314.396667,169.740814 
z"/>
<path fill="#E7E7E7" opacity="1.000000" stroke="none" 
	d="
M151.337296,166.022095 
	C158.346313,166.029648 159.885193,167.553619 159.952255,174.175278 
	C159.984009,177.310898 159.957703,180.447113 159.957703,183.184830 
	C157.180054,183.490250 154.771622,183.802490 152.354141,184.008423 
	C149.583191,184.244476 146.867371,184.125580 145.961304,180.776993 
	C145.028442,177.329315 146.985519,175.384995 149.910049,174.339920 
	C151.886932,173.633469 154.019501,173.362701 156.230164,172.863724 
	C155.518066,164.864334 149.468292,171.841980 146.347183,168.769791 
	C148.051224,167.759949 149.485703,166.909866 151.337296,166.022095 
M156.272842,178.392563 
	C156.194122,173.854126 153.326614,176.633392 151.880798,177.000183 
	C150.912430,177.245850 150.294220,178.871841 149.519318,179.880173 
	C150.960526,180.237656 152.401031,180.846222 153.843201,180.850204 
	C154.601929,180.852280 155.363556,179.797379 156.272842,178.392563 
z"/>
<path fill="#E2E2E2" opacity="1.000000" stroke="none" 
	d="
M191.719971,184.597778 
	C190.500748,180.034454 189.148972,175.829483 187.708923,171.654968 
	C187.114151,169.930801 186.329895,168.272003 185.615479,166.543930 
	C188.514557,166.165512 188.514557,166.165512 194.185303,176.867828 
	C198.132965,174.266434 195.667648,166.712891 202.489075,165.787949 
	C199.288879,178.944687 193.465149,189.742264 189.588470,189.567169 
	C190.261948,187.989685 190.906891,186.479050 191.719971,184.597778 
z"/>
<path fill="#E7E7E7" opacity="1.000000" stroke="none" 
	d="
M285.175842,173.995926 
	C287.011749,173.630905 288.450378,173.308929 289.854736,172.994598 
	C289.602753,170.213623 289.602753,170.213623 280.767090,169.439270 
	C282.594727,165.547836 286.110901,165.332703 289.081909,166.210342 
	C290.986908,166.773117 293.321136,169.224655 293.638824,171.133148 
	C294.329498,175.282257 293.851929,179.625854 293.851929,183.099213 
	C291.173279,183.434250 289.057648,183.758011 286.930176,183.950485 
	C284.059326,184.210205 280.996307,184.480408 279.999176,180.845963 
	C278.898529,176.834320 281.486328,175.120102 285.175842,173.995926 
M288.826172,176.113541 
	C288.032715,176.311279 287.074585,176.295395 286.481323,176.752808 
	C285.365417,177.613159 284.460114,178.746674 283.467224,179.766617 
	C285.044800,180.129074 287.108948,181.257919 288.069244,180.648193 
	C289.125305,179.977661 289.165649,177.707550 288.826172,176.113541 
z"/>
<path fill="#E2E2E2" opacity="1.000000" stroke="none" 
	d="
M368.542847,180.128433 
	C370.008209,180.385300 371.162750,181.141083 372.171448,180.980499 
	C373.570465,180.757767 374.859924,179.846695 376.196259,179.230316 
	C375.295654,178.237793 374.477051,177.152008 373.477051,176.272507 
	C371.513580,174.545685 369.121094,173.170242 367.641724,171.118912 
	C367.237823,170.558899 369.096222,167.398560 370.539520,166.675705 
	C373.598511,165.143677 376.867462,165.440247 379.323730,169.295944 
	C377.863403,169.166809 376.364868,168.777725 374.954071,168.985306 
	C373.671875,169.173950 372.485168,170.011444 371.256348,170.562897 
	C372.103668,171.409485 372.847137,172.414673 373.828125,173.057175 
	C374.772797,173.675934 376.013824,173.820969 377.036194,174.346268 
	C380.629730,176.192566 381.321960,181.124115 377.763977,182.580643 
	C374.984497,183.718445 371.320312,182.695053 368.049255,182.632004 
	C368.088501,181.827545 368.127747,181.023087 368.542847,180.128433 
z"/>
<path fill="#E4E4E4" opacity="1.000000" stroke="none" 
	d="
M403.447205,170.825043 
	C404.960266,172.142899 406.397888,173.238052 408.016632,173.866821 
	C410.781311,174.940643 413.222656,176.663803 411.815155,179.628174 
	C410.896332,181.563293 408.270416,183.326126 406.095398,183.841278 
	C404.051086,184.325500 401.594910,183.070770 399.319946,182.581161 
	C399.415344,181.891739 399.510712,181.202332 399.606079,180.512909 
	C400.982574,180.668884 402.400848,181.105499 403.724792,180.908432 
	C405.310944,180.672363 406.816650,179.895416 408.357178,179.352692 
	C407.353333,178.284622 406.393585,177.170441 405.335876,176.158676 
	C403.481476,174.384827 401.201874,172.899170 399.904114,170.796677 
	C399.523376,170.179825 401.547394,167.112122 403.013550,166.523590 
	C406.033630,165.311295 409.344421,165.304611 412.009674,168.551636 
	C408.853912,169.230591 406.153564,169.811569 403.447205,170.825043 
z"/>
<path fill="#DCDCDC" opacity="1.000000" stroke="none" 
	d="
M340.016663,172.319458 
	C339.263916,170.305878 338.511261,168.740952 337.746490,167.150833 
	C339.097717,164.983887 340.693909,162.424118 343.126556,158.522919 
	C343.567505,161.847534 343.809052,163.668518 344.069855,165.634811 
	C345.601685,165.876465 347.164368,166.122986 348.727051,166.369507 
	C348.830750,166.736679 348.934448,167.103851 349.038147,167.471024 
	C347.487091,168.107193 345.936005,168.743362 344.031586,169.524460 
	C344.031586,172.885132 344.031586,176.667572 344.031586,180.547775 
	C345.644836,180.814178 347.233093,181.076447 348.821350,181.338715 
	C348.852997,181.928635 348.884674,182.518539 348.916321,183.108459 
	C346.735352,183.340286 344.315308,184.237106 342.457825,183.569244 
	C341.227386,183.126816 340.472260,180.510223 340.107605,178.742493 
	C339.712311,176.826324 340.017181,174.765732 340.016663,172.319458 
z"/>
<path fill="#D8D8D8" opacity="1.000000" stroke="none" 
	d="
M306.756104,171.000061 
	C306.756104,166.529236 306.756104,162.551147 306.756104,158.496674 
	C309.584045,157.265747 310.757111,157.947418 310.705444,161.042389 
	C310.594604,167.679276 310.783295,174.322906 310.569153,180.954727 
	C310.530212,182.160721 309.158600,183.323685 308.402191,184.506531 
	C307.853485,184.259872 307.304779,184.013214 306.756073,183.766556 
	C306.756073,179.675308 306.756073,175.584061 306.756104,171.000061 
z"/>
<path fill="#D8D8D8" opacity="1.000000" stroke="none" 
	d="
M176.671997,165.139847 
	C176.671753,170.768372 176.816956,175.922668 176.562149,181.057098 
	C176.503418,182.240814 175.073929,183.356506 174.275223,184.503510 
	C173.834702,184.237457 173.394180,183.971420 172.953659,183.705368 
	C172.953659,175.287323 172.953659,166.869293 172.956238,158.450500 
	C176.670349,158.097000 176.670349,158.097000 176.671997,165.139847 
z"/>
<path fill="#EDEDED" opacity="1.000000" stroke="none" 
	d="
M134.456802,169.127106 
	C128.357391,171.435318 130.777710,176.425949 130.388992,180.406570 
	C130.166092,182.689301 130.532104,185.013031 126.847809,183.618179 
	C126.847809,177.916656 126.847809,172.169540 126.847809,166.862610 
	C130.463867,166.862610 133.992569,166.862610 137.521271,166.862610 
	C137.696716,167.087097 137.872177,167.311600 138.047623,167.536087 
	C136.992828,168.061478 135.938034,168.586868 134.456802,169.127106 
z"/>
<path fill="#DCDCDC" opacity="1.000000" stroke="none" 
	d="
M167.983276,173.965088 
	C167.983276,177.439499 167.983276,180.422333 167.983276,183.405182 
	C167.568848,183.703278 167.154419,184.001389 166.739990,184.299484 
	C165.895569,183.290222 164.353073,182.303406 164.319794,181.268066 
	C164.100586,174.448593 164.108536,167.615906 164.302063,160.794891 
	C164.334549,159.650101 165.629318,158.541092 166.340836,157.415543 
	C166.888321,157.646927 167.435791,157.878311 167.983276,158.109695 
	C167.983276,163.230972 167.983276,168.352249 167.983276,173.965088 
z"/>
<path fill="#E4E4E4" opacity="1.000000" stroke="none" 
	d="
M246.138702,171.911240 
	C245.904099,175.266830 246.025452,178.260406 245.676300,181.198059 
	C245.535538,182.382416 244.364685,183.444336 243.662628,184.561981 
	C243.203506,184.330658 242.744370,184.099319 242.285248,183.867996 
	C242.285248,177.984863 242.285248,172.101730 242.285248,166.606003 
	C245.740860,166.606003 249.057693,166.606003 253.504013,166.606003 
	C252.452408,167.651886 251.753098,168.617355 250.818390,169.214050 
	C249.400009,170.119446 247.818085,170.768692 246.138702,171.911240 
z"/>
<path fill="#DCDCDC" opacity="1.000000" stroke="none" 
	d="
M298.205566,180.686340 
	C298.205719,176.383362 298.040039,172.539688 298.308350,168.726517 
	C298.388550,167.586395 299.682007,166.531616 300.419617,165.437744 
	C300.862854,165.682526 301.306061,165.927307 301.749298,166.172089 
	C301.749298,171.946075 301.749298,177.720078 301.749298,183.494064 
	C301.395508,183.796082 301.041718,184.098083 300.687927,184.400101 
	C299.860596,183.319183 299.033264,182.238251 298.205566,180.686340 
z"/>
<path fill="#010101" opacity="1.000000" stroke="none" 
	d="
M260.039001,69.015579 
	C264.520996,69.077599 268.565002,68.740273 272.491028,69.272858 
	C287.131378,71.258842 295.215118,81.411980 295.074768,97.205154 
	C294.915161,115.163719 285.041046,124.978409 267.126282,124.984184 
	C262.503174,124.985672 257.880066,124.984421 253.055344,124.984421 
	C253.055344,106.217285 253.055344,87.841026 253.055344,69.015579 
	C255.309097,69.015579 257.427979,69.015579 260.039001,69.015579 
z"/>
<path fill="#040404" opacity="1.000000" stroke="none" 
	d="
M340.414185,88.282898 
	C347.726135,89.644478 351.020325,94.421600 351.964050,100.801559 
	C352.564301,104.859283 352.559601,109.123741 352.061340,113.202057 
	C351.052429,121.460152 346.160187,125.954865 338.827026,126.091713 
	C330.023499,126.255997 325.135773,122.444962 323.779053,113.571884 
	C323.160400,109.526085 323.119415,105.232140 323.733063,101.189896 
	C325.157867,91.804367 330.454132,87.819977 340.414185,88.282898 
z"/>
<path fill="#030303" opacity="1.000000" stroke="none" 
	d="
M197.301559,123.976791 
	C189.207245,119.015915 189.322662,100.375023 194.071655,93.687515 
	C199.878632,85.510162 213.566681,86.311111 217.844498,95.391449 
	C221.422531,102.986351 221.133255,110.876900 218.150955,118.700241 
	C215.393723,125.933167 205.088043,128.484116 197.301559,123.976791 
z"/>
<path fill="#080808" opacity="1.000000" stroke="none" 
	d="
M264.786438,173.312088 
	C265.377228,170.023682 266.937714,168.483398 269.990662,168.893478 
	C273.402863,169.351807 272.742706,171.988495 272.791992,174.215683 
	C272.821075,175.529526 273.242401,177.161652 272.631653,178.084045 
	C271.771729,179.382736 270.196014,180.778992 268.779114,180.956161 
	C267.650208,181.097321 265.792908,179.740692 265.184082,178.568497 
	C264.494019,177.239868 264.834930,175.375732 264.786438,173.312088 
z"/>
<path fill="#080808" opacity="1.000000" stroke="none" 
	d="
M214.410065,180.505402 
	C211.970291,180.082901 208.434052,179.833878 208.061874,178.617096 
	C207.286713,176.082672 207.440582,172.678101 208.587402,170.291763 
	C209.986115,167.381241 215.311615,168.467941 215.817139,171.807312 
	C216.225189,174.502625 215.158813,177.421127 214.410065,180.505402 
z"/>
<path fill="#080808" opacity="1.000000" stroke="none" 
	d="
M112.006790,179.883026 
	C111.485504,176.996521 110.783401,174.357010 111.201088,171.908493 
	C111.407585,170.697983 113.632439,169.115799 115.028084,169.027344 
	C116.398239,168.940506 118.958168,170.388992 119.095482,171.417419 
	C119.462845,174.168671 119.286774,177.243607 118.286758,179.779922 
	C117.968941,180.585999 114.379883,180.102295 112.006790,179.883026 
z"/>
<path fill="#121212" opacity="1.000000" stroke="none" 
	d="
M354.236389,179.173477 
	C356.252747,177.674576 358.261780,176.573975 360.270844,175.473373 
	C360.695404,175.881699 361.119995,176.290009 361.544556,176.698334 
	C360.801636,178.027679 360.295319,180.192764 359.259125,180.486145 
	C357.786743,180.902985 355.924683,179.943314 354.236389,179.173477 
z"/>
<path fill="#121212" opacity="1.000000" stroke="none" 
	d="
M156.198364,178.806152 
	C155.363556,179.797379 154.601929,180.852280 153.843201,180.850204 
	C152.401031,180.846222 150.960526,180.237656 149.519318,179.880173 
	C150.294220,178.871841 150.912430,177.245850 151.880798,177.000183 
	C153.326614,176.633392 156.194122,173.854126 156.198364,178.806152 
z"/>
<path fill="#121212" opacity="1.000000" stroke="none" 
	d="
M289.237366,176.123932 
	C289.165649,177.707550 289.125305,179.977661 288.069244,180.648193 
	C287.108948,181.257919 285.044800,180.129074 283.467224,179.766632 
	C284.460114,178.746674 285.365417,177.613159 286.481323,176.752808 
	C287.074585,176.295395 288.032715,176.311279 289.237366,176.123932 
z"/>
</svg>