<svg xmlns="http://www.w3.org/2000/svg" xmlns:xlink="http://www.w3.org/1999/xlink" width="500" zoomAndPan="magnify" viewBox="0 0 375 374.999991" height="500" preserveAspectRatio="xMidYMid meet" version="1.0"><defs><g/></defs><rect x="-37.5" width="450" fill="#ffffff" y="-37.499999" height="449.999989" fill-opacity="1"/><rect x="-37.5" width="450" fill="#ffffff" y="-37.499999" height="449.999989" fill-opacity="1"/><rect x="-37.5" width="450" fill="#000000" y="-37.499999" height="449.999989" fill-opacity="1"/><g fill="#ffffff" fill-opacity="1"><g transform="translate(44.63649, 228.712724)"><g><path d="M 44.1875 0 L 22.453125 0 L 22.453125 -62.671875 L 2.8125 -62.671875 L 2.8125 -80.4375 L 63.765625 -80.4375 L 63.765625 -62.671875 L 44.1875 -62.671875 Z M 44.1875 0 "/></g></g></g><g fill="#ffffff" fill-opacity="1"><g transform="translate(111.205132, 228.712724)"><g><path d="M 66.96875 -31.3125 C 66.96875 -21.113281 64.222656 -13.160156 58.734375 -7.453125 C 53.253906 -1.753906 45.578125 1.09375 35.703125 1.09375 C 26.242188 1.09375 18.71875 -1.816406 13.125 -7.640625 C 7.53125 -13.472656 4.734375 -21.363281 4.734375 -31.3125 C 4.734375 -41.46875 7.472656 -49.359375 12.953125 -54.984375 C 18.441406 -60.617188 26.140625 -63.4375 36.046875 -63.4375 C 42.171875 -63.4375 47.578125 -62.132812 52.265625 -59.53125 C 56.960938 -56.925781 60.585938 -53.191406 63.140625 -48.328125 C 65.691406 -43.472656 66.96875 -37.800781 66.96875 -31.3125 Z M 26.578125 -31.3125 C 26.578125 -25.957031 27.289062 -21.875 28.71875 -19.0625 C 30.15625 -16.257812 32.5625 -14.859375 35.9375 -14.859375 C 39.269531 -14.859375 41.625 -16.257812 43 -19.0625 C 44.375 -21.875 45.0625 -25.957031 45.0625 -31.3125 C 45.0625 -36.625 44.363281 -40.640625 42.96875 -43.359375 C 41.570312 -46.078125 39.1875 -47.4375 35.8125 -47.4375 C 32.519531 -47.4375 30.15625 -46.085938 28.71875 -43.390625 C 27.289062 -40.691406 26.578125 -36.664062 26.578125 -31.3125 Z M 26.578125 -31.3125 "/></g></g></g><g fill="#ffffff" fill-opacity="1"><g transform="translate(183.000278, 228.712724)"><g><path d="M 76.984375 -41.921875 C 76.984375 -28.503906 73.285156 -18.160156 65.890625 -10.890625 C 58.492188 -3.628906 48.101562 0 34.71875 0 L 8.6875 0 L 8.6875 -80.4375 L 36.53125 -80.4375 C 49.445312 -80.4375 59.414062 -77.132812 66.4375 -70.53125 C 73.46875 -63.9375 76.984375 -54.398438 76.984375 -41.921875 Z M 54.421875 -41.15625 C 54.421875 -48.53125 52.960938 -53.992188 50.046875 -57.546875 C 47.128906 -61.109375 42.695312 -62.890625 36.75 -62.890625 L 30.421875 -62.890625 L 30.421875 -17.828125 L 35.265625 -17.828125 C 41.867188 -17.828125 46.710938 -19.742188 49.796875 -23.578125 C 52.878906 -27.410156 54.421875 -33.269531 54.421875 -41.15625 Z M 54.421875 -41.15625 "/></g></g></g><g fill="#ffffff" fill-opacity="1"><g transform="translate(265.688475, 228.712724)"><g><path d="M 66.96875 -31.3125 C 66.96875 -21.113281 64.222656 -13.160156 58.734375 -7.453125 C 53.253906 -1.753906 45.578125 1.09375 35.703125 1.09375 C 26.242188 1.09375 18.71875 -1.816406 13.125 -7.640625 C 7.53125 -13.472656 4.734375 -21.363281 4.734375 -31.3125 C 4.734375 -41.46875 7.472656 -49.359375 12.953125 -54.984375 C 18.441406 -60.617188 26.140625 -63.4375 36.046875 -63.4375 C 42.171875 -63.4375 47.578125 -62.132812 52.265625 -59.53125 C 56.960938 -56.925781 60.585938 -53.191406 63.140625 -48.328125 C 65.691406 -43.472656 66.96875 -37.800781 66.96875 -31.3125 Z M 26.578125 -31.3125 C 26.578125 -25.957031 27.289062 -21.875 28.71875 -19.0625 C 30.15625 -16.257812 32.5625 -14.859375 35.9375 -14.859375 C 39.269531 -14.859375 41.625 -16.257812 43 -19.0625 C 44.375 -21.875 45.0625 -25.957031 45.0625 -31.3125 C 45.0625 -36.625 44.363281 -40.640625 42.96875 -43.359375 C 41.570312 -46.078125 39.1875 -47.4375 35.8125 -47.4375 C 32.519531 -47.4375 30.15625 -46.085938 28.71875 -43.390625 C 27.289062 -40.691406 26.578125 -36.664062 26.578125 -31.3125 Z M 26.578125 -31.3125 "/></g></g></g></svg>